<svg xmlns="http://www.w3.org/2000/svg" width="196.934" height="294.069" viewBox="0 0 196.934 294.069" fill="none">
  <path d="M 196.934 294.069 L 93.528 294.069 L 93.528 276.296 L 75.285 276.296 L 75.285 271.444 L 196.934 271.444 L 196.934 294.069 Z M 158.164 226.213 L 54.749 226.213 L 54.749 208.439 L 37.638 208.439 L 37.638 203.588 L 158.164 203.588 L 158.164 226.213 Z M 132.307 158.357 L 28.893 158.357 L 28.893 140.583 L 0 140.583 L 0 135.731 L 132.307 135.731 L 132.307 158.357 Z M 158.164 90.481 L 54.749 90.481 L 54.749 72.708 L 37.638 72.708 L 37.638 67.856 L 158.164 67.856 L 158.164 90.481 Z M 196.934 0 L 196.934 22.625 L 93.528 22.625 L 93.528 4.851 L 75.285 4.851 L 75.285 0 L 196.934 0 Z" fill="#fff" fill-rule="nonzero"></path>
</svg>