<svg xmlns="http://www.w3.org/2000/svg" width="528" height="452" viewBox="0 0 528 452" fill="#ffffff">
  <defs>
    <clipPath id="opCircle">
      <circle cx="297.09" cy="226.213" r="226.213"></circle>
    </clipPath>
  </defs>
  
  <path transform="translate(0, 67.856)" fill-rule="nonzero" d="M 196.934 294.069 L 93.528 294.069 L 93.528 276.296 L 75.285 276.296 L 75.285 271.444 L 196.934 271.444 L 196.934 294.069 Z M 158.164 226.213 L 54.749 226.213 L 54.749 208.439 L 37.638 208.439 L 37.638 203.588 L 158.164 203.588 L 158.164 226.213 Z M 132.307 158.357 L 28.893 158.357 L 28.893 140.583 L 0 140.583 L 0 135.731 L 132.307 135.731 L 132.307 158.357 Z M 158.164 90.481 L 54.749 90.481 L 54.749 72.708 L 37.638 72.708 L 37.638 67.856 L 158.164 67.856 L 158.164 90.481 Z M 196.934 0 L 196.934 22.625 L 93.528 22.625 L 93.528 4.851 L 75.285 4.851 L 75.285 0 L 196.934 0 Z"></path>
  
  <g clip-path="url(#opCircle)">
    <path transform="translate(70.877, 0)" fill-rule="nonzero" d="M 452.427 452.417 L 0 452.417 L 0 407.176 L 452.427 407.176 L 452.427 452.417 Z M 452.427 384.561 L 0 384.561 L 0 339.32 L 452.427 339.32 L 452.427 384.561 Z M 452.427 316.685 L 0 316.685 L 0 271.444 L 452.427 271.444 L 452.427 316.685 Z M 452.427 248.848 L 0 248.848 L 0 203.607 L 452.427 203.607 L 452.427 248.848 Z M 452.427 180.954 L 0 180.954 L 0 135.713 L 452.427 135.713 L 452.427 180.954 Z M 452.427 113.097 L 0 113.097 L 0 67.857 L 452.427 67.857 L 452.427 113.097 Z M 452.427 45.241 L 0 45.241 L 0 0 L 452.427 0 L 452.427 45.241 Z"></path>
  </g>
</svg>