<svg xmlns="http://www.w3.org/2000/svg" width="452.427" height="452.417" viewBox="0 0 452.427 452.417" fill="none">
  <path d="M 452.427 452.417 L 0 452.417 L 0 407.176 L 452.427 407.176 L 452.427 452.417 Z M 452.427 384.561 L 0 384.561 L 0 339.32 L 452.427 339.32 L 452.427 384.561 Z M 452.427 316.685 L 0 316.685 L 0 271.444 L 452.427 271.444 L 452.427 316.685 Z M 452.427 248.848 L 0 248.848 L 0 203.607 L 452.427 203.607 L 452.427 248.848 Z M 452.427 180.954 L 0 180.954 L 0 135.713 L 452.427 135.713 L 452.427 180.954 Z M 452.427 113.097 L 0 113.097 L 0 67.857 L 452.427 67.857 L 452.427 113.097 Z M 452.427 45.241 L 0 45.241 L 0 0 L 452.427 0 L 452.427 45.241 Z" fill="#fff" fill-rule="nonzero"></path>
</svg>